<?xml version="1.0" standalone="no"?>
<svg viewBox="0 0 200 200" xmlns="http://www.w3.org/2000/svg">
  <path fill="#5222AF" d="M29,-40.1C40.7,-37.6,55.3,-34.8,59.9,-26.8C64.4,-18.8,58.9,-5.5,51.2,3.2C43.5,12,33.7,16.3,26.5,20.8C19.3,25.3,14.7,30,7.2,38.7C-0.3,47.4,-10.9,60.2,-16.5,57.8C-22.2,55.5,-23,38.1,-32.5,27.8C-42.1,17.5,-60.3,14.4,-60,9.3C-59.6,4.2,-40.8,-2.9,-34.7,-15.8C-28.7,-28.7,-35.6,-47.4,-32,-53.6C-28.3,-59.7,-14.2,-53.2,-2.8,-49C8.7,-44.7,17.3,-42.6,29,-40.1Z" transform="translate(100 100)" />
</svg>
